AdventPro-reg.ufo
<glyph name="parenright" format="1">
  <advance width="183" height="962"/>
  <unicode hex="0029"/>
  <outline>
    <contour>
      <point x="36" y="818" type="line"/>
      <point x="107" y="779"/>
      <point x="141" y="728"/>
      <point x="141" y="627" type="curve" smooth="yes"/>
      <point x="141" y="70" type="line" smooth="yes"/>
      <point x="141" y="-58"/>
      <point x="87" y="-82"/>
      <point x="36" y="-120" type="curve"/>
      <point x="17" y="-81" type="line"/>
      <point x="63" y="-49"/>
      <point x="84" y="-1"/>
      <point x="84" y="62" type="curve" smooth="yes"/>
      <point x="84" y="255"/>
      <point x="84" y="444"/>
      <point x="84" y="637" type="curve" smooth="yes"/>
      <point x="84" y="698"/>
      <point x="63" y="748"/>
      <point x="17" y="780" type="curve"/>
    </contour>
  </outline>
</glyph>
<glyph name="plus" format="2">
  <advance width="379" height="962"/>
  <unicode hex="002B"/>
  <outline>
    <contour>
      <point x="217" y="530" type="line"/>
      <point x="217" y="398" type="line"/>
      <point x="348" y="398" type="line"/>
      <point x="348" y="343" type="line"/>
      <point x="217" y="343" type="line"/>
      <point x="217" y="210" type="line"/>
      <point x="162" y="210" type="line"/>
      <point x="162" y="343" type="line"/>
      <point x="28" y="343" type="line"/>
      <point x="28" y="398" type="line"/>
      <point x="162" y="398" type="line"/>
      <point x="162" y="530" type="line"/>
    </contour>
  </outline>
</glyph>
<glyph name="three" format="2">
  <advance width="443" height="962"/>
  <unicode hex="0033"/>
  <outline>
    <contour>
      <point x="203" y="414" type="line" smooth="yes"/>
      <point x="323" y="414"/>
      <point x="415" y="319"/>
      <point x="415" y="200" type="curve" smooth="yes"/>
      <point x="415" y="81"/>
      <point x="322" y="-12"/>
      <point x="203" y="-12" type="curve" smooth="yes"/>
      <point x="131" y="-12"/>
      <point x="65" y="25"/>
      <point x="26" y="82" type="curve"/>
      <point x="72" y="113" type="line"/>
      <point x="103" y="67"/>
      <point x="147" y="44"/>
      <point x="203" y="44" type="curve" smooth="yes"/>
      <point x="290" y="44"/>
      <point x="359" y="113"/>
      <point x="359" y="200" type="curve" smooth="yes"/>
      <point x="359" y="282"/>
      <point x="295" y="356"/>
      <point x="210" y="356" type="curve" smooth="yes"/>
      <point x="99" y="356" type="line"/>
      <point x="292" y="643" type="line"/>
      <point x="70" y="643" type="line"/>
      <point x="70" y="700" type="line"/>
      <point x="360" y="700" type="line"/>
      <point x="360" y="651" type="line"/>
      <point x="201" y="414" type="line"/>
    </contour>
  </outline>
</glyph>
<glyph name="four" format="1">
  <advance width="489" height="962"/>
  <unicode hex="0034"/>
  <outline>
    <contour>
      <point x="332" y="0" type="line"/>
      <point x="332" y="356" type="line"/>
      <point x="16" y="356" type="line"/>
      <point x="210" y="700" type="line"/>
      <point x="269" y="700" type="line"/>
      <point x="113" y="414" type="line"/>
      <point x="332" y="414" type="line"/>
      <point x="332" y="700" type="line"/>
      <point x="389" y="700" type="line"/>
      <point x="389" y="414" type="line"/>
      <point x="462" y="414" type="line"/>
      <point x="441" y="356" type="line"/>
      <point x="389" y="356" type="line"/>
      <point x="389" y="0" type="line"/>
    </contour>
  </outline>
</glyph>
<glyph name="six" format="2">
  <advance width="484"/>
  <unicode hex="0036"/>
  <outline>
    <contour>
      <point x="272" y="648" type="line" smooth="yes"/>
      <point x="156" y="648"/>
      <point x="86" y="568"/>
      <point x="86" y="455" type="curve" smooth="yes"/>
      <point x="86" y="347" type="line"/>
      <point x="129" y="393"/>
      <point x="182" y="415"/>
      <point x="242" y="415" type="curve" smooth="yes"/>
      <point x="361" y="415"/>
      <point x="458" y="323"/>
      <point x="458" y="203" type="curve" smooth="yes"/>
      <point x="458" y="85"/>
      <point x="362" y="-10"/>
      <point x="245" y="-10" type="curve" smooth="yes"/>
      <point x="127" y="-10"/>
      <point x="31" y="84"/>
      <point x="31" y="203" type="curve" smooth="yes"/>
      <point x="31" y="462" type="line" smooth="yes"/>
      <point x="31" y="604"/>
      <point x="134" y="700"/>
      <point x="276" y="700" type="curve" smooth="yes"/>
      <point x="311" y="700" type="line"/>
      <point x="311" y="648" type="line"/>
    </contour>
    <contour>
      <point x="245" y="360" type="curve" smooth="yes"/>
      <point x="159" y="360"/>
      <point x="86" y="289"/>
      <point x="86" y="203" type="curve" smooth="yes"/>
      <point x="86" y="117"/>
      <point x="159" y="45"/>
      <point x="245" y="45" type="curve" smooth="yes"/>
      <point x="331" y="45"/>
      <point x="402" y="117"/>
      <point x="402" y="203" type="curve" smooth="yes"/>
      <point x="402" y="289"/>
      <point x="331" y="360"/>
    </contour>
  </outline>
</glyph>
<glyph name="semicolon" format="2">
  <advance width="150"/>
  <unicode hex="003B"/>
  <outline>
    <contour>
      <point x="38" y="35" type="line"/>
      <point x="60" y="62"/>
      <point x="67" y="89"/>
      <point x="69" y="111" type="curve"/>
      <point x="53" y="113"/>
      <point x="41" y="128"/>
      <point x="41" y="144" type="curve" smooth="yes"/>
      <point x="41" y="162"/>
      <point x="56" y="177"/>
      <point x="74" y="177" type="curve" smooth="yes"/>
      <point x="93" y="177"/>
      <point x="107" y="164"/>
      <point x="109" y="144" type="curve"/>
      <point x="109" y="81"/>
      <point x="75" y="40"/>
      <point x="55" y="23" type="curve"/>
    </contour>
    <contour>
      <point x="111" y="385" type="curve" smooth="yes"/>
      <point x="111" y="367"/>
      <point x="96" y="352"/>
      <point x="77" y="352" type="curve" smooth="yes"/>
      <point x="60" y="352"/>
      <point x="43" y="367"/>
      <point x="43" y="385" type="curve" smooth="yes"/>
      <point x="43" y="404"/>
      <point x="60" y="418"/>
      <point x="77" y="418" type="curve" smooth="yes"/>
      <point x="96" y="418"/>
      <point x="111" y="404"/>
    </contour>
  </outline>
</glyph>
<glyph name="less" format="2">
  <advance width="375" height="962"/>
  <unicode hex="003C"/>
  <outline>
    <contour>
      <point x="25" y="359" type="line"/>
      <point x="303" y="637" type="line"/>
      <point x="342" y="599" type="line"/>
      <point x="102" y="357" type="line"/>
      <point x="342" y="119" type="line"/>
      <point x="303" y="79" type="line"/>
    </contour>
  </outline>
</glyph>
<glyph name="G" format="2">
  <advance width="479"/>
  <unicode hex="0047"/>
  <outline>
    <contour>
      <point x="354" y="638" type="line"/>
      <point x="317" y="653"/>
      <point x="282" y="659"/>
      <point x="248" y="659" type="curve" smooth="yes"/>
      <point x="149" y="659"/>
      <point x="91" y="616"/>
      <point x="91" y="512" type="curve" smooth="yes"/>
      <point x="91" y="187" type="line" smooth="yes"/>
      <point x="91" y="96"/>
      <point x="136" y="44"/>
      <point x="223" y="44" type="curve" smooth="yes"/>
      <point x="319" y="44"/>
      <point x="393" y="99"/>
      <point x="393" y="187" type="curve" smooth="yes"/>
      <point x="393" y="245" type="line"/>
      <point x="264" y="245" type="line"/>
      <point x="244" y="300" type="line"/>
      <point x="446" y="300" type="line"/>
      <point x="446" y="0" type="line"/>
      <point x="395" y="0" type="line"/>
      <point x="391" y="51" type="line"/>
      <point x="355" y="13"/>
      <point x="290" y="-10"/>
      <point x="225" y="-10" type="curve" smooth="yes"/>
      <point x="110" y="-10"/>
      <point x="34" y="58"/>
      <point x="34" y="189" type="curve" smooth="yes"/>
      <point x="34" y="504" type="line" smooth="yes"/>
      <point x="34" y="632"/>
      <point x="103" y="709"/>
      <point x="229" y="709" type="curve" smooth="yes"/>
      <point x="281" y="709"/>
      <point x="329" y="698"/>
      <point x="371" y="676" type="curve"/>
    </contour>
  </outline>
</glyph>
<glyph name="K" format="1">
  <advance width="459" height="962"/>
  <unicode hex="004B"/>
  <outline>
    <contour>
      <point x="98" y="367" type="line"/>
      <point x="321" y="700" type="line"/>
      <point x="386" y="700" type="line"/>
      <point x="182" y="398" type="line"/>
      <point x="438" y="0" type="line"/>
      <point x="371" y="0" type="line"/>
      <point x="145" y="345" type="line"/>
      <point x="98" y="269" type="line"/>
      <point x="98" y="0" type="line"/>
      <point x="41" y="0" type="line"/>
      <point x="41" y="700" type="line"/>
      <point x="98" y="700" type="line"/>
    </contour>
  </outline>
</glyph>
<glyph name="L" format="2">
  <advance width="424"/>
  <unicode hex="004C"/>
  <outline>
    <contour>
      <point x="41" y="0" type="line"/>
      <point x="41" y="700" type="line"/>
      <point x="98" y="700" type="line"/>
      <point x="98" y="50" type="line"/>
      <point x="402" y="50" type="line"/>
      <point x="402" y="0" type="line"/>
    </contour>
  </outline>
</glyph>
<glyph name="N" format="1">
  <advance width="577" height="962"/>
  <unicode hex="004E"/>
  <outline>
    <contour>
      <point x="534" y="700" type="line"/>
      <point x="534" y="0" type="line"/>
      <point x="478" y="0" type="line"/>
      <point x="98" y="597" type="line"/>
      <point x="98" y="0" type="line"/>
      <point x="41" y="0" type="line"/>
      <point x="41" y="700" type="line"/>
      <point x="98" y="700" type="line"/>
      <point x="478" y="103" type="line"/>
      <point x="478" y="700" type="line"/>
    </contour>
  </outline>
</glyph>
<glyph name="S" format="2">
  <advance width="530"/>
  <unicode hex="0053"/>
  <outline>
    <contour>
      <point x="421" y="624" type="line"/>
      <point x="380" y="646"/>
      <point x="332" y="655"/>
      <point x="285" y="655" type="curve" smooth="yes"/>
      <point x="213" y="655"/>
      <point x="118" y="632"/>
      <point x="118" y="543" type="curve" smooth="yes"/>
      <point x="118" y="370"/>
      <point x="499" y="426"/>
      <point x="499" y="180" type="curve" smooth="yes"/>
      <point x="499" y="46"/>
      <point x="381" y="-12"/>
      <point x="263" y="-12" type="curve" smooth="yes"/>
      <point x="168" y="-12"/>
      <point x="87" y="20"/>
      <point x="25" y="92" type="curve"/>
      <point x="60" y="127" type="line"/>
      <point x="102" y="71"/>
      <point x="191" y="42"/>
      <point x="259" y="42" type="curve" smooth="yes"/>
      <point x="353" y="42"/>
      <point x="439" y="81"/>
      <point x="439" y="188" type="curve" smooth="yes"/>
      <point x="439" y="369"/>
      <point x="60" y="328"/>
      <point x="60" y="538" type="curve" smooth="yes"/>
      <point x="60" y="664"/>
      <point x="175" y="709"/>
      <point x="284" y="709" type="curve" smooth="yes"/>
      <point x="337" y="709"/>
      <point x="390" y="697"/>
      <point x="437" y="672" type="curve"/>
    </contour>
  </outline>
  <guideline angle="90" x="57.4784" y="0"/>
  <guideline angle="0" x="0" y="586"/>
</glyph>
<glyph name="U" format="1">
  <advance width="498" height="962"/>
  <unicode hex="0055"/>
  <outline>
    <contour>
      <point x="458" y="186" type="line" smooth="yes"/>
      <point x="458" y="58"/>
      <point x="372" y="-11"/>
      <point x="249" y="-11" type="curve" smooth="yes"/>
      <point x="124" y="-11"/>
      <point x="38" y="56"/>
      <point x="38" y="186" type="curve" smooth="yes"/>
      <point x="38" y="700" type="line"/>
      <point x="94" y="700" type="line"/>
      <point x="94" y="187" type="line" smooth="yes"/>
      <point x="94" y="91"/>
      <point x="156" y="42"/>
      <point x="248" y="42" type="curve" smooth="yes"/>
      <point x="340" y="42"/>
      <point x="402" y="90"/>
      <point x="402" y="187" type="curve" smooth="yes"/>
      <point x="402" y="700" type="line"/>
      <point x="458" y="700" type="line"/>
    </contour>
  </outline>
</glyph>
<glyph name="W" format="2">
  <advance width="733"/>
  <unicode hex="0057"/>
  <outline>
    <contour>
      <point x="405" y="700" type="line"/>
      <point x="513" y="69" type="line"/>
      <point x="654" y="700" type="line"/>
      <point x="713" y="700" type="line"/>
      <point x="550" y="0" type="line"/>
      <point x="466" y="0" type="line"/>
      <point x="367" y="599" type="line"/>
      <point x="268" y="0" type="line"/>
      <point x="183" y="0" type="line"/>
      <point x="17" y="700" type="line"/>
      <point x="78" y="700" type="line"/>
      <point x="220" y="69" type="line"/>
      <point x="327" y="700" type="line"/>
    </contour>
  </outline>
  <guideline angle="102" x="130.047" y="0"/>
</glyph>
<glyph name="X" format="2">
  <advance width="556" height="962"/>
  <unicode hex="0058"/>
  <outline>
    <contour>
      <point x="279" y="406" type="line"/>
      <point x="454" y="700" type="line"/>
      <point x="516" y="700" type="line"/>
      <point x="313" y="352" type="line"/>
      <point x="532" y="0" type="line"/>
      <point x="463" y="0" type="line"/>
      <point x="279" y="294" type="line"/>
      <point x="94" y="0" type="line"/>
      <point x="25" y="0" type="line"/>
      <point x="246" y="352" type="line"/>
      <point x="43" y="700" type="line"/>
      <point x="107" y="700" type="line"/>
    </contour>
  </outline>
</glyph>
<glyph name="Z" format="1">
  <advance width="547" height="962"/>
  <unicode hex="005A"/>
  <outline>
    <contour>
      <point x="511" y="700" type="line"/>
      <point x="511" y="650" type="line"/>
      <point x="100" y="51" type="line"/>
      <point x="516" y="51" type="line"/>
      <point x="516" y="0" type="line"/>
      <point x="29" y="0" type="line"/>
      <point x="29" y="50" type="line"/>
      <point x="438" y="649" type="line"/>
      <point x="41" y="649" type="line"/>
      <point x="41" y="700" type="line"/>
    </contour>
  </outline>
</glyph>
<glyph name="asciicircum" format="1">
  <advance width="267" height="962"/>
  <unicode hex="005E"/>
  <outline>
    <contour>
      <point x="264" y="772" type="line"/>
      <point x="225" y="735" type="line"/>
      <point x="136" y="824" type="line"/>
      <point x="42" y="732" type="line"/>
      <point x="3" y="771" type="line"/>
      <point x="136" y="900" type="line"/>
    </contour>
  </outline>
</glyph>
<glyph name="d" format="1">
  <advance width="458" height="962"/>
  <unicode hex="0064"/>
  <outline>
    <contour>
      <point x="414" y="0" type="line"/>
      <point x="416" y="0"/>
      <point x="304" y="-9"/>
      <point x="258" y="-10" type="curve" smooth="yes"/>
      <point x="129" y="-14"/>
      <point x="29" y="21"/>
      <point x="29" y="169" type="curve" smooth="yes"/>
      <point x="29" y="359" type="line" smooth="yes"/>
      <point x="29" y="472"/>
      <point x="117" y="510"/>
      <point x="196" y="510" type="curve" smooth="yes"/>
      <point x="261" y="510"/>
      <point x="314" y="493"/>
      <point x="359" y="473" type="curve"/>
      <point x="359" y="700" type="line"/>
      <point x="414" y="700" type="line"/>
    </contour>
    <contour>
      <point x="359" y="423" type="line"/>
      <point x="306" y="446"/>
      <point x="256" y="463"/>
      <point x="192" y="463" type="curve" smooth="yes"/>
      <point x="158" y="463"/>
      <point x="84" y="449"/>
      <point x="84" y="355" type="curve" smooth="yes"/>
      <point x="84" y="176" type="line" smooth="yes"/>
      <point x="84" y="80"/>
      <point x="120" y="34"/>
      <point x="253" y="38" type="curve" smooth="yes"/>
      <point x="317" y="40"/>
      <point x="359" y="47"/>
      <point x="359" y="46" type="curve"/>
    </contour>
  </outline>
</glyph>
<glyph name="f" format="2">
  <advance width="249" height="962"/>
  <unicode hex="0066"/>
  <outline>
    <contour>
      <point x="215" y="658" type="line"/>
      <point x="205" y="660"/>
      <point x="197" y="660"/>
      <point x="189" y="660" type="curve" smooth="yes"/>
      <point x="128" y="660"/>
      <point x="96" y="623"/>
      <point x="96" y="550" type="curve" smooth="yes"/>
      <point x="96" y="500" type="line"/>
      <point x="210" y="500" type="line"/>
      <point x="187" y="447" type="line"/>
      <point x="96" y="447" type="line"/>
      <point x="96" y="0" type="line"/>
      <point x="39" y="0" type="line"/>
      <point x="39" y="550" type="line" smooth="yes"/>
      <point x="39" y="676"/>
      <point x="123" y="710"/>
      <point x="188" y="710" type="curve" smooth="yes"/>
      <point x="201" y="710"/>
      <point x="213" y="710"/>
      <point x="224" y="707" type="curve"/>
    </contour>
  </outline>
</glyph>
<glyph name="j" format="1">
  <advance width="200" height="962"/>
  <unicode hex="006A"/>
  <outline>
    <contour>
      <point x="150" y="-63" type="line" smooth="yes"/>
      <point x="150" y="-145"/>
      <point x="119" y="-185"/>
      <point x="43" y="-210" type="curve"/>
      <point x="27" y="-167" type="line"/>
      <point x="74" y="-150"/>
      <point x="94" y="-110"/>
      <point x="94" y="-62" type="curve" smooth="yes"/>
      <point x="94" y="449" type="line"/>
      <point x="29" y="449" type="line"/>
      <point x="29" y="501" type="line"/>
      <point x="150" y="501" type="line"/>
    </contour>
    <contour>
      <point x="158" y="676" type="curve" smooth="yes"/>
      <point x="158" y="659"/>
      <point x="142" y="643"/>
      <point x="124" y="643" type="curve" smooth="yes"/>
      <point x="105" y="643"/>
      <point x="89" y="659"/>
      <point x="89" y="676" type="curve" smooth="yes"/>
      <point x="89" y="695"/>
      <point x="105" y="709"/>
      <point x="124" y="709" type="curve" smooth="yes"/>
      <point x="142" y="709"/>
      <point x="158" y="695"/>
    </contour>
  </outline>
</glyph>
<glyph name="k" format="1">
  <advance width="427" height="962"/>
  <unicode hex="006B"/>
  <outline>
    <contour>
      <point x="190" y="352" type="line"/>
      <point x="408" y="0" type="line"/>
      <point x="341" y="0" type="line"/>
      <point x="150" y="317" type="line"/>
      <point x="98" y="273" type="line"/>
      <point x="98" y="0" type="line"/>
      <point x="41" y="0" type="line"/>
      <point x="41" y="700" type="line"/>
      <point x="98" y="700" type="line"/>
      <point x="98" y="335" type="line"/>
      <point x="298" y="520" type="line"/>
      <point x="338" y="482" type="line"/>
    </contour>
  </outline>
</glyph>
<glyph name="m" format="1">
  <advance width="717" height="962"/>
  <unicode hex="006D"/>
  <outline>
    <contour>
      <point x="628" y="342" type="line" smooth="yes"/>
      <point x="628" y="433"/>
      <point x="570" y="459"/>
      <point x="507" y="459" type="curve" smooth="yes"/>
      <point x="468" y="459"/>
      <point x="424" y="448"/>
      <point x="376" y="418" type="curve"/>
      <point x="384" y="397"/>
      <point x="387" y="372"/>
      <point x="387" y="344" type="curve" smooth="yes"/>
      <point x="387" y="0" type="line"/>
      <point x="335" y="0" type="line"/>
      <point x="335" y="342" type="line" smooth="yes"/>
      <point x="335" y="433"/>
      <point x="278" y="459"/>
      <point x="214" y="459" type="curve" smooth="yes"/>
      <point x="168" y="459"/>
      <point x="136" y="447"/>
      <point x="95" y="423" type="curve"/>
      <point x="95" y="0" type="line"/>
      <point x="38" y="0" type="line"/>
      <point x="38" y="500" type="line"/>
      <point x="95" y="500" type="line"/>
      <point x="95" y="466" type="line"/>
      <point x="135" y="492"/>
      <point x="174" y="509"/>
      <point x="224" y="509" type="curve" smooth="yes"/>
      <point x="287" y="509"/>
      <point x="333" y="489"/>
      <point x="359" y="453" type="curve"/>
      <point x="403" y="486"/>
      <point x="461" y="509"/>
      <point x="517" y="509" type="curve" smooth="yes"/>
      <point x="628" y="509"/>
      <point x="681" y="451"/>
      <point x="681" y="344" type="curve" smooth="yes"/>
      <point x="681" y="0" type="line"/>
      <point x="628" y="0" type="line"/>
    </contour>
  </outline>
</glyph>
<glyph name="n" format="2">
  <advance width="443"/>
  <unicode hex="006E"/>
  <outline>
    <contour>
      <point x="352" y="342" type="line" smooth="yes"/>
      <point x="352" y="432"/>
      <point x="286" y="460"/>
      <point x="222" y="460" type="curve" smooth="yes"/>
      <point x="176" y="460"/>
      <point x="136" y="448"/>
      <point x="95" y="425" type="curve"/>
      <point x="95" y="0" type="line"/>
      <point x="38" y="0" type="line"/>
      <point x="38" y="501" type="line"/>
      <point x="95" y="501" type="line"/>
      <point x="95" y="467" type="line"/>
      <point x="133" y="493"/>
      <point x="183" y="510"/>
      <point x="233" y="510" type="curve" smooth="yes"/>
      <point x="344" y="510"/>
      <point x="407" y="450"/>
      <point x="407" y="345" type="curve" smooth="yes"/>
      <point x="407" y="0" type="line"/>
      <point x="352" y="0" type="line"/>
    </contour>
  </outline>
</glyph>
<glyph name="r" format="2">
  <advance width="333"/>
  <unicode hex="0072"/>
  <outline>
    <contour>
      <point x="306" y="461" type="line"/>
      <point x="306" y="461"/>
      <point x="286" y="463"/>
      <point x="264" y="462" type="curve" smooth="yes"/>
      <point x="208" y="460"/>
      <point x="131" y="434"/>
      <point x="95" y="409" type="curve"/>
      <point x="95" y="0" type="line"/>
      <point x="38" y="0" type="line"/>
      <point x="38" y="501" type="line"/>
      <point x="95" y="501" type="line"/>
      <point x="95" y="468" type="line"/>
      <point x="144" y="490"/>
      <point x="193" y="508"/>
      <point x="265" y="512" type="curve" smooth="yes"/>
      <point x="289" y="513"/>
      <point x="310" y="509"/>
      <point x="310" y="509" type="curve"/>
    </contour>
  </outline>
</glyph>
<glyph name="s" format="1">
  <advance width="417" height="962"/>
  <unicode hex="0073"/>
  <outline>
    <contour>
      <point x="323" y="439" type="line"/>
      <point x="297" y="456"/>
      <point x="258" y="465"/>
      <point x="225" y="465" type="curve" smooth="yes"/>
      <point x="171" y="465"/>
      <point x="104" y="442"/>
      <point x="104" y="386" type="curve" smooth="yes"/>
      <point x="104" y="270"/>
      <point x="387" y="297"/>
      <point x="387" y="126" type="curve" smooth="yes"/>
      <point x="387" y="30"/>
      <point x="299" y="-18"/>
      <point x="214" y="-18" type="curve" smooth="yes"/>
      <point x="143" y="-18"/>
      <point x="72" y="15"/>
      <point x="26" y="68" type="curve"/>
      <point x="57" y="101" type="line"/>
      <point x="102" y="56"/>
      <point x="152" y="34"/>
      <point x="214" y="34" type="curve" smooth="yes"/>
      <point x="265" y="34"/>
      <point x="335" y="61"/>
      <point x="335" y="125" type="curve" smooth="yes"/>
      <point x="335" y="253"/>
      <point x="51" y="229"/>
      <point x="51" y="384" type="curve" smooth="yes"/>
      <point x="51" y="468"/>
      <point x="134" y="512"/>
      <point x="214" y="512" type="curve" smooth="yes"/>
      <point x="254" y="512"/>
      <point x="297" y="506"/>
      <point x="346" y="477" type="curve"/>
    </contour>
  </outline>
</glyph>
<glyph name="w" format="1">
  <advance width="708" height="962"/>
  <unicode hex="0077"/>
  <outline>
    <contour>
      <point x="381" y="499" type="line"/>
      <point x="491" y="57" type="line"/>
      <point x="625" y="499" type="line"/>
      <point x="684" y="499" type="line"/>
      <point x="528" y="0" type="line"/>
      <point x="451" y="0" type="line"/>
      <point x="351" y="405" type="line"/>
      <point x="249" y="0" type="line"/>
      <point x="171" y="0" type="line"/>
      <point x="19" y="499" type="line"/>
      <point x="77" y="499" type="line"/>
      <point x="212" y="57" type="line"/>
      <point x="324" y="499" type="line"/>
    </contour>
  </outline>
</glyph>
<glyph name="y" format="1">
  <advance width="469" height="962"/>
  <unicode hex="0079"/>
  <outline>
    <contour>
      <point x="438" y="470" type="line"/>
      <point x="420" y="462"/>
      <point x="405" y="450"/>
      <point x="405" y="408" type="curve" smooth="yes"/>
      <point x="405" y="-62" type="line" smooth="yes"/>
      <point x="405" y="-145"/>
      <point x="376" y="-184"/>
      <point x="300" y="-209" type="curve"/>
      <point x="284" y="-166" type="line"/>
      <point x="330" y="-148"/>
      <point x="349" y="-110"/>
      <point x="349" y="-61" type="curve" smooth="yes"/>
      <point x="349" y="50" type="line"/>
      <point x="316" y="10"/>
      <point x="260" y="-9"/>
      <point x="210" y="-9" type="curve" smooth="yes"/>
      <point x="99" y="-9"/>
      <point x="35" y="44"/>
      <point x="35" y="158" type="curve" smooth="yes"/>
      <point x="35" y="501" type="line"/>
      <point x="92" y="501" type="line"/>
      <point x="92" y="162" type="line" smooth="yes"/>
      <point x="92" y="69"/>
      <point x="160" y="44"/>
      <point x="222" y="44" type="curve" smooth="yes"/>
      <point x="293" y="44"/>
      <point x="349" y="104"/>
      <point x="349" y="174" type="curve" smooth="yes"/>
      <point x="349" y="409" type="line" smooth="yes"/>
      <point x="349" y="455"/>
      <point x="371" y="496"/>
      <point x="418" y="512" type="curve"/>
    </contour>
  </outline>
</glyph>
<glyph name="bar" format="1">
  <advance width="141" height="962"/>
  <unicode hex="007C"/>
  <outline>
    <contour>
      <point x="42" y="-114" type="line"/>
      <point x="42" y="818" type="line"/>
      <point x="98" y="818" type="line"/>
      <point x="98" y="-114" type="line"/>
    </contour>
  </outline>
</glyph>
<glyph name="exclamdown" format="2">
  <advance width="148" height="962"/>
  <unicode hex="00A1"/>
  <outline>
    <contour>
      <point x="107" y="36" type="line"/>
      <point x="107" y="12"/>
      <point x="96" y="0"/>
      <point x="73" y="0" type="curve" smooth="yes"/>
      <point x="52" y="0"/>
      <point x="40" y="12"/>
      <point x="40" y="37" type="curve"/>
      <point x="50" y="590" type="line"/>
      <point x="98" y="590" type="line"/>
    </contour>
    <contour>
      <point x="107" y="676" type="curve" smooth="yes"/>
      <point x="107" y="659"/>
      <point x="92" y="643"/>
      <point x="73" y="643" type="curve" smooth="yes"/>
      <point x="55" y="643"/>
      <point x="39" y="659"/>
      <point x="39" y="676" type="curve" smooth="yes"/>
      <point x="39" y="695"/>
      <point x="55" y="709"/>
      <point x="73" y="709" type="curve" smooth="yes"/>
      <point x="92" y="709"/>
      <point x="107" y="695"/>
    </contour>
  </outline>
</glyph>
<glyph name="registered" format="2">
  <advance width="696"/>
  <unicode hex="00AE"/>
  <outline>
    <contour>
      <point x="664" y="188" type="line" smooth="yes"/>
      <point x="664" y="16"/>
      <point x="532" y="-69"/>
      <point x="347" y="-69" type="curve" smooth="yes"/>
      <point x="164" y="-69"/>
      <point x="31" y="16"/>
      <point x="31" y="188" type="curve" smooth="yes"/>
      <point x="31" y="327" type="line" smooth="yes"/>
      <point x="31" y="497"/>
      <point x="164" y="584"/>
      <point x="347" y="584" type="curve" smooth="yes"/>
      <point x="532" y="584"/>
      <point x="664" y="497"/>
      <point x="664" y="327" type="curve" smooth="yes"/>
    </contour>
    <contour>
      <point x="603" y="302" type="line" smooth="yes"/>
      <point x="603" y="467"/>
      <point x="523" y="530"/>
      <point x="347" y="530" type="curve" smooth="yes"/>
      <point x="172" y="530"/>
      <point x="91" y="467"/>
      <point x="91" y="302" type="curve" smooth="yes"/>
      <point x="91" y="212" type="line" smooth="yes"/>
      <point x="91" y="49"/>
      <point x="172" y="-15"/>
      <point x="347" y="-15" type="curve" smooth="yes"/>
      <point x="523" y="-15"/>
      <point x="603" y="49"/>
      <point x="603" y="212" type="curve" smooth="yes"/>
    </contour>
    <contour>
      <point x="385" y="443" type="line" smooth="yes"/>
      <point x="438" y="443"/>
      <point x="513" y="431"/>
      <point x="516" y="312" type="curve" smooth="yes"/>
      <point x="517" y="256"/>
      <point x="500" y="204"/>
      <point x="441" y="186" type="curve"/>
      <point x="505" y="59" type="line"/>
      <point x="440" y="59" type="line"/>
      <point x="383" y="177" type="line"/>
      <point x="234" y="177" type="line"/>
      <point x="234" y="59" type="line"/>
      <point x="181" y="59" type="line"/>
      <point x="181" y="443" type="line"/>
    </contour>
    <contour>
      <point x="388" y="233" type="line" smooth="yes"/>
      <point x="439" y="233"/>
      <point x="464" y="257"/>
      <point x="464" y="311" type="curve" smooth="yes"/>
      <point x="464" y="366"/>
      <point x="442" y="389"/>
      <point x="388" y="389" type="curve" smooth="yes"/>
      <point x="234" y="389" type="line"/>
      <point x="234" y="233" type="line"/>
    </contour>
  </outline>
</glyph>
<glyph name="guillemotright" format="2">
  <advance width="504" height="962"/>
  <unicode hex="00BB"/>
  <outline>
    <contour>
      <point x="181" y="267" type="line"/>
      <point x="31" y="417" type="line"/>
      <point x="67" y="455" type="line"/>
      <point x="255" y="267" type="line"/>
      <point x="67" y="79" type="line"/>
      <point x="33" y="114" type="line"/>
    </contour>
    <contour>
      <point x="400" y="267" type="line"/>
      <point x="251" y="417" type="line"/>
      <point x="288" y="455" type="line"/>
      <point x="475" y="267" type="line"/>
      <point x="288" y="79" type="line"/>
      <point x="253" y="114" type="line"/>
    </contour>
  </outline>
</glyph>
<glyph name="questiondown" format="2">
  <advance width="409"/>
  <unicode hex="00BF"/>
  <outline>
    <contour>
      <point x="379" y="162" type="line"/>
      <point x="378" y="40"/>
      <point x="293" y="-15"/>
      <point x="207" y="-15" type="curve" smooth="yes"/>
      <point x="118" y="-15"/>
      <point x="29" y="45"/>
      <point x="29" y="156" type="curve" smooth="yes"/>
      <point x="29" y="229"/>
      <point x="65" y="274"/>
      <point x="112" y="327" type="curve" smooth="yes"/>
      <point x="151" y="372"/>
      <point x="188" y="404"/>
      <point x="188" y="487" type="curve" smooth="yes"/>
      <point x="188" y="574" type="line"/>
      <point x="240" y="574" type="line"/>
      <point x="240" y="482" type="line" smooth="yes"/>
      <point x="240" y="395"/>
      <point x="200" y="346"/>
      <point x="163" y="303" type="curve" smooth="yes"/>
      <point x="124" y="260"/>
      <point x="84" y="226"/>
      <point x="84" y="158" type="curve" smooth="yes"/>
      <point x="84" y="80"/>
      <point x="144" y="39"/>
      <point x="202" y="37" type="curve" smooth="yes"/>
      <point x="263" y="35"/>
      <point x="323" y="76"/>
      <point x="323" y="162" type="curve"/>
    </contour>
    <contour>
      <point x="213" y="703" type="curve" smooth="yes"/>
      <point x="231" y="703"/>
      <point x="247" y="688"/>
      <point x="247" y="669" type="curve" smooth="yes"/>
      <point x="247" y="651"/>
      <point x="231" y="636"/>
      <point x="213" y="636" type="curve" smooth="yes"/>
      <point x="195" y="636"/>
      <point x="180" y="651"/>
      <point x="180" y="669" type="curve" smooth="yes"/>
      <point x="180" y="688"/>
      <point x="195" y="703"/>
    </contour>
  </outline>
</glyph>
<glyph name="AE" format="2">
  <advance width="752" height="962"/>
  <unicode hex="00C6"/>
  <outline>
    <contour>
      <point x="384" y="0" type="line"/>
      <point x="384" y="244" type="line"/>
      <point x="174" y="244" type="line"/>
      <point x="79" y="0" type="line"/>
      <point x="20" y="0" type="line"/>
      <point x="292" y="700" type="line"/>
      <point x="721" y="700" type="line"/>
      <point x="721" y="647" type="line"/>
      <point x="441" y="647" type="line"/>
      <point x="441" y="414" type="line"/>
      <point x="633" y="414" type="line"/>
      <point x="614" y="356" type="line"/>
      <point x="441" y="356" type="line"/>
      <point x="441" y="50" type="line"/>
      <point x="721" y="50" type="line"/>
      <point x="721" y="0" type="line"/>
    </contour>
    <contour>
      <point x="195" y="300" type="line"/>
      <point x="384" y="300" type="line"/>
      <point x="384" y="647" type="line"/>
      <point x="330" y="647" type="line"/>
    </contour>
  </outline>
</glyph>
<glyph name="Eth" format="1">
  <advance width="497" height="962"/>
  <unicode hex="00D0"/>
  <outline>
    <component base="D"/>
    <contour>
      <point x="67" y="357" type="line"/>
      <point x="67" y="412" type="line"/>
      <point x="288" y="412" type="line"/>
      <point x="270" y="357" type="line"/>
    </contour>
  </outline>
</glyph>
<glyph name="divide" format="2">
  <advance width="379"/>
  <unicode hex="00F7"/>
  <outline>
    <contour>
      <point x="28" y="356" type="line"/>
      <point x="28" y="410" type="line"/>
      <point x="348" y="410" type="line"/>
      <point x="348" y="356" type="line"/>
    </contour>
    <contour>
      <point x="189" y="546" type="curve" smooth="yes"/>
      <point x="207" y="546"/>
      <point x="223" y="530"/>
      <point x="223" y="512" type="curve" smooth="yes"/>
      <point x="223" y="494"/>
      <point x="207" y="479"/>
      <point x="189" y="479" type="curve" smooth="yes"/>
      <point x="170" y="479"/>
      <point x="156" y="494"/>
      <point x="156" y="512" type="curve" smooth="yes"/>
      <point x="156" y="530"/>
      <point x="170" y="546"/>
    </contour>
    <contour>
      <point x="189" y="288" type="curve" smooth="yes"/>
      <point x="207" y="288"/>
      <point x="223" y="274"/>
      <point x="223" y="255" type="curve" smooth="yes"/>
      <point x="223" y="236"/>
      <point x="207" y="222"/>
      <point x="189" y="222" type="curve" smooth="yes"/>
      <point x="170" y="222"/>
      <point x="156" y="236"/>
      <point x="156" y="255" type="curve" smooth="yes"/>
      <point x="156" y="274"/>
      <point x="170" y="288"/>
    </contour>
  </outline>
</glyph>
<glyph name="oslash" format="2">
  <advance width="430"/>
  <unicode hex="00F8"/>
  <outline>
    <component base="o"/>
    <contour>
      <point x="361" y="514" type="line"/>
      <point x="130" y="-20" type="line"/>
      <point x="73" y="-20" type="line"/>
      <point x="303" y="514" type="line"/>
    </contour>
  </outline>
</glyph>
<glyph name="dcroat" format="2">
  <advance width="458" height="962"/>
  <unicode hex="0111"/>
  <outline>
    <component base="d"/>
    <contour>
      <point x="462" y="564" type="line"/>
      <point x="225" y="564" type="line"/>
      <point x="225" y="617" type="line"/>
      <point x="462" y="617" type="line"/>
    </contour>
  </outline>
</glyph>
<glyph name="Hbar" format="1">
  <advance width="515" height="962"/>
  <unicode hex="0126"/>
  <outline>
    <component base="H"/>
    <contour>
      <point x="512" y="500" type="line"/>
      <point x="-3" y="500" type="line"/>
      <point x="-3" y="554" type="line"/>
      <point x="512" y="554" type="line"/>
    </contour>
  </outline>
</glyph>
<glyph name="hbar" format="1">
  <advance width="444" height="962"/>
  <unicode hex="0127"/>
  <outline>
    <component base="h"/>
    <contour>
      <point x="237" y="564" type="line"/>
      <point x="1" y="564" type="line"/>
      <point x="1" y="617" type="line"/>
      <point x="237" y="617" type="line"/>
    </contour>
  </outline>
</glyph>
<glyph name="eng" format="2">
  <advance width="443" height="962"/>
  <unicode hex="014B"/>
  <outline>
    <contour>
      <point x="407" y="-65" type="line" smooth="yes"/>
      <point x="407" y="-145"/>
      <point x="377" y="-187"/>
      <point x="302" y="-211" type="curve"/>
      <point x="285" y="-168" type="line"/>
      <point x="332" y="-152"/>
      <point x="351" y="-112"/>
      <point x="351" y="-64" type="curve" smooth="yes"/>
      <point x="351" y="343" type="line" smooth="yes"/>
      <point x="351" y="434"/>
      <point x="286" y="460"/>
      <point x="222" y="460" type="curve" smooth="yes"/>
      <point x="176" y="460"/>
      <point x="133" y="448"/>
      <point x="95" y="425" type="curve"/>
      <point x="95" y="0" type="line"/>
      <point x="38" y="0" type="line"/>
      <point x="38" y="500" type="line"/>
      <point x="95" y="500" type="line"/>
      <point x="95" y="467" type="line"/>
      <point x="133" y="493"/>
      <point x="183" y="510"/>
      <point x="233" y="510" type="curve" smooth="yes"/>
      <point x="344" y="510"/>
      <point x="407" y="452"/>
      <point x="407" y="346" type="curve" smooth="yes"/>
    </contour>
  </outline>
</glyph>
<glyph name="Tbar" format="2">
  <advance width="417" height="962"/>
  <unicode hex="0166"/>
  <outline>
    <component base="T"/>
    <contour>
      <point x="9" y="379" type="line"/>
      <point x="409" y="379" type="line"/>
      <point x="409" y="326" type="line"/>
      <point x="9" y="326" type="line"/>
    </contour>
  </outline>
</glyph>
<glyph name="dotlessj" format="2">
  <advance width="188" height="962"/>
  <unicode hex="0237"/>
  <outline>
    <contour>
      <point x="148" y="-63" type="line" smooth="yes"/>
      <point x="148" y="-145"/>
      <point x="119" y="-186"/>
      <point x="42" y="-210" type="curve"/>
      <point x="26" y="-167" type="line"/>
      <point x="72" y="-149"/>
      <point x="92" y="-111"/>
      <point x="92" y="-62" type="curve" smooth="yes"/>
      <point x="92" y="449" type="line"/>
      <point x="28" y="449" type="line"/>
      <point x="28" y="501" type="line"/>
      <point x="148" y="501" type="line"/>
    </contour>
  </outline>
</glyph>
<glyph name="circumflex" format="2">
  <advance width="267"/>
  <unicode hex="02C6"/>
  <outline>
    <contour>
      <point x="264" y="624" type="line"/>
      <point x="224" y="587" type="line"/>
      <point x="135" y="675" type="line"/>
      <point x="42" y="585" type="line"/>
      <point x="3" y="623" type="line"/>
      <point x="135" y="751" type="line"/>
    </contour>
  </outline>
</glyph>
<glyph name="Lambda" format="1">
  <advance width="547" height="962"/>
  <unicode hex="039B"/>
  <outline>
    <contour>
      <point x="272" y="614" type="line"/>
      <point x="81" y="0" type="line"/>
      <point x="21" y="0" type="line"/>
      <point x="246" y="700" type="line"/>
      <point x="299" y="700" type="line"/>
      <point x="527" y="0" type="line"/>
      <point x="467" y="0" type="line"/>
    </contour>
  </outline>
</glyph>
<glyph name="Psi" format="1">
  <advance width="595" height="962"/>
  <unicode hex="03A8"/>
  <outline>
    <contour>
      <point x="90" y="396" type="line" smooth="yes"/>
      <point x="90" y="308"/>
      <point x="143" y="264"/>
      <point x="223" y="264" type="curve" smooth="yes"/>
      <point x="267" y="264" type="line"/>
      <point x="267" y="700" type="line"/>
      <point x="324" y="700" type="line"/>
      <point x="324" y="264" type="line"/>
      <point x="374" y="264" type="line" smooth="yes"/>
      <point x="453" y="264"/>
      <point x="505" y="308"/>
      <point x="505" y="396" type="curve" smooth="yes"/>
      <point x="505" y="564" type="line" smooth="yes"/>
      <point x="505" y="661"/>
      <point x="463" y="691"/>
      <point x="461" y="693" type="curve"/>
      <point x="505" y="709" type="line"/>
      <point x="541" y="685"/>
      <point x="561" y="639"/>
      <point x="561" y="550" type="curve" smooth="yes"/>
      <point x="561" y="406" type="line" smooth="yes"/>
      <point x="561" y="285"/>
      <point x="501" y="213"/>
      <point x="374" y="213" type="curve" smooth="yes"/>
      <point x="324" y="213" type="line"/>
      <point x="324" y="0" type="line"/>
      <point x="267" y="0" type="line"/>
      <point x="267" y="213" type="line"/>
      <point x="223" y="213" type="line" smooth="yes"/>
      <point x="97" y="213"/>
      <point x="34" y="285"/>
      <point x="34" y="406" type="curve" smooth="yes"/>
      <point x="34" y="700" type="line"/>
      <point x="90" y="700" type="line"/>
    </contour>
  </outline>
</glyph>
<glyph name="kappa" format="1">
  <advance width="434" height="962"/>
  <unicode hex="03BA"/>
  <outline>
    <contour>
      <point x="315" y="118" type="line" smooth="yes"/>
      <point x="349" y="71"/>
      <point x="380" y="48"/>
      <point x="406" y="48" type="curve" smooth="yes"/>
      <point x="410" y="48" type="line"/>
      <point x="410" y="0" type="line"/>
      <point x="408" y="0" type="line"/>
      <point x="337" y="0"/>
      <point x="292" y="58"/>
      <point x="254" y="111" type="curve" smooth="yes"/>
      <point x="150" y="254" type="line"/>
      <point x="95" y="198" type="line"/>
      <point x="95" y="0" type="line"/>
      <point x="38" y="0" type="line"/>
      <point x="38" y="512" type="line"/>
      <point x="95" y="499" type="line"/>
      <point x="95" y="274" type="line"/>
      <point x="302" y="501" type="line"/>
      <point x="376" y="501" type="line"/>
      <point x="188" y="296" type="line"/>
    </contour>
  </outline>
</glyph>
<glyph name="xi" format="2">
  <advance width="431"/>
  <unicode hex="03BE"/>
  <outline>
    <contour>
      <point x="360" y="651" type="line"/>
      <point x="239" y="651" type="line" smooth="yes"/>
      <point x="181" y="651"/>
      <point x="144" y="606"/>
      <point x="146" y="542" type="curve" smooth="yes"/>
      <point x="148" y="475"/>
      <point x="191" y="422"/>
      <point x="274" y="404" type="curve" smooth="yes"/>
      <point x="307" y="398" type="line"/>
      <point x="295" y="354" type="line"/>
      <point x="181" y="354" type="line" smooth="yes"/>
      <point x="145" y="354"/>
      <point x="84" y="342"/>
      <point x="84" y="252" type="curve" smooth="yes"/>
      <point x="84" y="176" type="line" smooth="yes"/>
      <point x="84" y="80"/>
      <point x="107" y="32"/>
      <point x="241" y="38" type="curve" smooth="yes"/>
      <point x="277" y="40"/>
      <point x="356" y="49"/>
      <point x="381" y="51" type="curve"/>
      <point x="381" y="-212" type="line"/>
      <point x="325" y="-188" type="line"/>
      <point x="325" y="-4" type="line"/>
      <point x="294" y="-6"/>
      <point x="270" y="-9"/>
      <point x="244" y="-10" type="curve" smooth="yes"/>
      <point x="116" y="-15"/>
      <point x="28" y="21"/>
      <point x="28" y="169" type="curve" smooth="yes"/>
      <point x="28" y="255" type="line" smooth="yes"/>
      <point x="28" y="357"/>
      <point x="87" y="405"/>
      <point x="160" y="405" type="curve" smooth="yes"/>
      <point x="168" y="405" type="line"/>
      <point x="114" y="438"/>
      <point x="90" y="502"/>
      <point x="88" y="545" type="curve" smooth="yes"/>
      <point x="86" y="634"/>
      <point x="136" y="702"/>
      <point x="236" y="702" type="curve" smooth="yes"/>
      <point x="382" y="702" type="line"/>
    </contour>
  </outline>
  <guideline angle="0" x="0" y="-4"/>
</glyph>
<glyph name="pi" format="1">
  <advance width="470" height="962"/>
  <unicode hex="03C0"/>
  <outline>
    <contour>
      <point x="414" y="69" type="line" smooth="yes"/>
      <point x="414" y="51"/>
      <point x="428" y="37"/>
      <point x="444" y="26" type="curve"/>
      <point x="417" y="-6" type="line"/>
      <point x="417" y="-7"/>
      <point x="360" y="11"/>
      <point x="360" y="78" type="curve" smooth="yes"/>
      <point x="360" y="446" type="line"/>
      <point x="95" y="446" type="line"/>
      <point x="95" y="0" type="line"/>
      <point x="38" y="0" type="line"/>
      <point x="38" y="500" type="line"/>
      <point x="414" y="500" type="line"/>
    </contour>
  </outline>
</glyph>
<glyph name="rho" format="2">
  <advance width="437" height="962"/>
  <unicode hex="03C1"/>
  <outline>
    <contour>
      <point x="405" y="171" type="line" smooth="yes"/>
      <point x="405" y="48"/>
      <point x="347" y="-18"/>
      <point x="236" y="-18" type="curve" smooth="yes"/>
      <point x="173" y="-18"/>
      <point x="116" y="15"/>
      <point x="93" y="56" type="curve"/>
      <point x="93" y="-211" type="line"/>
      <point x="35" y="-188" type="line"/>
      <point x="35" y="311" type="line" smooth="yes"/>
      <point x="35" y="438"/>
      <point x="104" y="508"/>
      <point x="222" y="508" type="curve" smooth="yes"/>
      <point x="341" y="508"/>
      <point x="405" y="433"/>
      <point x="405" y="311" type="curve" smooth="yes"/>
    </contour>
    <contour>
      <point x="349" y="311" type="line" smooth="yes"/>
      <point x="349" y="409"/>
      <point x="309" y="456"/>
      <point x="225" y="456" type="curve" smooth="yes"/>
      <point x="137" y="456"/>
      <point x="93" y="409"/>
      <point x="93" y="311" type="curve" smooth="yes"/>
      <point x="93" y="168" type="line" smooth="yes"/>
      <point x="93" y="82"/>
      <point x="155" y="35"/>
      <point x="231" y="35" type="curve" smooth="yes"/>
      <point x="307" y="35"/>
      <point x="349" y="78"/>
      <point x="349" y="163" type="curve" smooth="yes"/>
    </contour>
  </outline>
</glyph>
<glyph name="sigma1" format="1">
  <advance width="341" height="962"/>
  <unicode hex="03C2"/>
  <outline>
    <contour>
      <point x="80" y="285" type="line" smooth="yes"/>
      <point x="80" y="245"/>
      <point x="88" y="219"/>
      <point x="130" y="183" type="curve" smooth="yes"/>
      <point x="205" y="117" type="line" smooth="yes"/>
      <point x="241" y="85"/>
      <point x="286" y="51"/>
      <point x="286" y="-15" type="curve" smooth="yes"/>
      <point x="286" y="-69"/>
      <point x="249" y="-111"/>
      <point x="196" y="-143" type="curve"/>
      <point x="171" y="-109" type="line"/>
      <point x="206" y="-87"/>
      <point x="236" y="-55"/>
      <point x="236" y="-22" type="curve" smooth="yes"/>
      <point x="236" y="14"/>
      <point x="223" y="31"/>
      <point x="185" y="64" type="curve" smooth="yes"/>
      <point x="94" y="144" type="line" smooth="yes"/>
      <point x="40" y="190"/>
      <point x="23" y="225"/>
      <point x="23" y="284" type="curve" smooth="yes"/>
      <point x="23" y="346" type="line" smooth="yes"/>
      <point x="23" y="454"/>
      <point x="98" y="505"/>
      <point x="182" y="505" type="curve" smooth="yes"/>
      <point x="261" y="505"/>
      <point x="315" y="469"/>
      <point x="314" y="471" type="curve"/>
      <point x="294" y="427" type="line"/>
      <point x="275" y="439"/>
      <point x="234" y="454"/>
      <point x="195" y="456" type="curve" smooth="yes"/>
      <point x="133" y="458"/>
      <point x="80" y="426"/>
      <point x="80" y="354" type="curve" smooth="yes"/>
    </contour>
  </outline>
</glyph>
<glyph name="phi" format="1">
  <advance width="587" height="962"/>
  <unicode hex="03C6"/>
  <outline>
    <contour>
      <point x="29" y="314" type="line" smooth="yes"/>
      <point x="29" y="416"/>
      <point x="69" y="478"/>
      <point x="147" y="504" type="curve"/>
      <point x="176" y="459" type="line"/>
      <point x="117" y="444"/>
      <point x="85" y="396"/>
      <point x="85" y="314" type="curve" smooth="yes"/>
      <point x="85" y="179" type="line" smooth="yes"/>
      <point x="85" y="91"/>
      <point x="139" y="43"/>
      <point x="219" y="43" type="curve" smooth="yes"/>
      <point x="262" y="43" type="line"/>
      <point x="262" y="400" type="line" smooth="yes"/>
      <point x="262" y="467"/>
      <point x="308" y="508"/>
      <point x="370" y="508" type="curve" smooth="yes"/>
      <point x="486" y="508"/>
      <point x="556" y="428"/>
      <point x="556" y="307" type="curve" smooth="yes"/>
      <point x="556" y="189" type="line" smooth="yes"/>
      <point x="556" y="68"/>
      <point x="496" y="-7"/>
      <point x="369" y="-7" type="curve" smooth="yes"/>
      <point x="319" y="-7" type="line"/>
      <point x="319" y="-212" type="line"/>
      <point x="262" y="-188" type="line"/>
      <point x="262" y="-7" type="line"/>
      <point x="219" y="-7" type="line" smooth="yes"/>
      <point x="92" y="-7"/>
      <point x="29" y="68"/>
      <point x="29" y="189" type="curve" smooth="yes"/>
    </contour>
    <contour>
      <point x="369" y="43" type="line" smooth="yes"/>
      <point x="450" y="43"/>
      <point x="503" y="91"/>
      <point x="503" y="179" type="curve" smooth="yes"/>
      <point x="503" y="317" type="line" smooth="yes"/>
      <point x="503" y="405"/>
      <point x="439" y="455"/>
      <point x="378" y="455" type="curve" smooth="yes"/>
      <point x="340" y="455"/>
      <point x="319" y="432"/>
      <point x="319" y="392" type="curve" smooth="yes"/>
      <point x="319" y="43" type="line"/>
    </contour>
  </outline>
</glyph>
<glyph name="uni0404" format="2">
  <advance width="424"/>
  <unicode hex="0404"/>
  <outline>
    <component base="C"/>
    <contour>
      <point x="81" y="357" type="line"/>
      <point x="81" y="412" type="line"/>
      <point x="281" y="412" type="line"/>
      <point x="263" y="357" type="line"/>
    </contour>
  </outline>
</glyph>
<glyph name="uni040A" format="1">
  <advance width="831" height="962"/>
  <unicode hex="040A"/>
  <outline>
    <contour>
      <point x="646" y="413" type="line" smooth="yes"/>
      <point x="728" y="413"/>
      <point x="801" y="365"/>
      <point x="801" y="253" type="curve" smooth="yes"/>
      <point x="801" y="170" type="line" smooth="yes"/>
      <point x="801" y="19"/>
      <point x="704" y="-9"/>
      <point x="574" y="-9" type="curve" smooth="yes"/>
      <point x="522" y="-9"/>
      <point x="414" y="1"/>
      <point x="414" y="1" type="curve"/>
      <point x="414" y="358" type="line"/>
      <point x="101" y="358" type="line"/>
      <point x="101" y="1" type="line"/>
      <point x="41" y="1" type="line"/>
      <point x="41" y="701" type="line"/>
      <point x="101" y="701" type="line"/>
      <point x="101" y="413" type="line"/>
      <point x="414" y="413" type="line"/>
      <point x="414" y="701" type="line"/>
      <point x="469" y="701" type="line"/>
      <point x="469" y="413" type="line"/>
    </contour>
    <contour>
      <point x="747" y="177" type="curve" smooth="yes"/>
      <point x="747" y="251" type="line" smooth="yes"/>
      <point x="747" y="342"/>
      <point x="687" y="358"/>
      <point x="653" y="358" type="curve" smooth="yes"/>
      <point x="469" y="358" type="line"/>
      <point x="469" y="45" type="line"/>
      <point x="479" y="44"/>
      <point x="519" y="39"/>
      <point x="579" y="39" type="curve" smooth="yes"/>
      <point x="686" y="39"/>
      <point x="747" y="54"/>
    </contour>
  </outline>
</glyph>
<glyph name="uni040F" format="1">
  <advance width="518" height="962"/>
  <unicode hex="040F"/>
  <outline>
    <contour>
      <point x="474" y="700" type="line"/>
      <point x="474" y="0" type="line"/>
      <point x="284" y="0" type="line"/>
      <point x="282" y="-107" type="line"/>
      <point x="235" y="-107" type="line"/>
      <point x="233" y="0" type="line"/>
      <point x="43" y="0" type="line"/>
      <point x="43" y="700" type="line"/>
      <point x="101" y="700" type="line"/>
      <point x="101" y="57" type="line"/>
      <point x="417" y="57" type="line"/>
      <point x="417" y="700" type="line"/>
    </contour>
  </outline>
</glyph>
<glyph name="uni0418" format="2">
  <advance width="577" height="962"/>
  <unicode hex="0418"/>
  <outline>
    <contour>
      <point x="41" y="700" type="line"/>
      <point x="97" y="700" type="line"/>
      <point x="97" y="103" type="line"/>
      <point x="477" y="700" type="line"/>
      <point x="534" y="700" type="line"/>
      <point x="534" y="0" type="line"/>
      <point x="477" y="0" type="line"/>
      <point x="477" y="597" type="line"/>
      <point x="97" y="0" type="line"/>
      <point x="41" y="0" type="line"/>
    </contour>
  </outline>
</glyph>
<glyph name="uni0423" format="2">
  <advance width="484"/>
  <unicode hex="0423"/>
  <outline>
    <contour>
      <point x="414" y="700" type="line"/>
      <point x="476" y="700" type="line"/>
      <point x="202" y="111" type="line" smooth="yes"/>
      <point x="168" y="39"/>
      <point x="141" y="3"/>
      <point x="78" y="-12" type="curve"/>
      <point x="41" y="19" type="line"/>
      <point x="102" y="37"/>
      <point x="137" y="101"/>
      <point x="147" y="123" type="curve" smooth="yes"/>
      <point x="211" y="262" type="line"/>
      <point x="7" y="700" type="line"/>
      <point x="69" y="700" type="line"/>
      <point x="241" y="328" type="line"/>
    </contour>
  </outline>
</glyph>
<glyph name="uni0432" format="1">
  <advance width="448" height="962"/>
  <unicode hex="0432"/>
  <outline>
    <contour>
      <point x="333" y="279" type="curve"/>
      <point x="386" y="257"/>
      <point x="418" y="203"/>
      <point x="418" y="149" type="curve" smooth="yes"/>
      <point x="418" y="66"/>
      <point x="361" y="-11"/>
      <point x="235" y="-11" type="curve" smooth="yes"/>
      <point x="144" y="-11"/>
      <point x="35" y="0"/>
      <point x="35" y="0" type="curve"/>
      <point x="35" y="501" type="line"/>
      <point x="35" y="501"/>
      <point x="125" y="511"/>
      <point x="232" y="511" type="curve" smooth="yes"/>
      <point x="339" y="511"/>
      <point x="391" y="450"/>
      <point x="391" y="379" type="curve" smooth="yes"/>
      <point x="391" y="337"/>
      <point x="367" y="298"/>
    </contour>
    <contour>
      <point x="226" y="461" type="curve" smooth="yes"/>
      <point x="175" y="461"/>
      <point x="92" y="455"/>
      <point x="92" y="455" type="curve"/>
      <point x="92" y="301" type="line"/>
      <point x="255" y="301" type="line" smooth="yes"/>
      <point x="299" y="301"/>
      <point x="332" y="340"/>
      <point x="332" y="382" type="curve" smooth="yes"/>
      <point x="332" y="444"/>
      <point x="277" y="461"/>
    </contour>
    <contour>
      <point x="225" y="42" type="curve" smooth="yes"/>
      <point x="308" y="42"/>
      <point x="362" y="87"/>
      <point x="362" y="146" type="curve" smooth="yes"/>
      <point x="362" y="222"/>
      <point x="293" y="247"/>
      <point x="254" y="247" type="curve" smooth="yes"/>
      <point x="92" y="247" type="line"/>
      <point x="92" y="46" type="line"/>
      <point x="92" y="46"/>
      <point x="160" y="42"/>
    </contour>
  </outline>
</glyph>
<glyph name="uni043B" format="2">
  <advance width="480"/>
  <unicode hex="043B"/>
  <outline>
    <contour>
      <point x="310" y="500" type="curve" smooth="yes"/>
      <point x="439" y="500" type="line"/>
      <point x="439" y="0" type="line"/>
      <point x="382" y="0" type="line"/>
      <point x="382" y="447" type="line"/>
      <point x="316" y="447" type="line" smooth="yes"/>
      <point x="263" y="447"/>
      <point x="233" y="421"/>
      <point x="220" y="378" type="curve" smooth="yes"/>
      <point x="139" y="112" type="line" smooth="yes"/>
      <point x="117" y="40"/>
      <point x="96" y="4"/>
      <point x="36" y="-11" type="curve"/>
      <point x="-1" y="20" type="line"/>
      <point x="57" y="38"/>
      <point x="80" y="102"/>
      <point x="87" y="124" type="curve" smooth="yes"/>
      <point x="156" y="357" type="line" smooth="yes"/>
      <point x="169" y="400"/>
      <point x="190" y="500"/>
    </contour>
  </outline>
</glyph>
<glyph name="uni0449" format="1">
  <advance width="639" height="962"/>
  <unicode hex="0449"/>
  <outline>
    <component base="uni0448"/>
    <contour>
      <point x="552" y="57" type="line"/>
      <point x="620" y="57" type="line"/>
      <point x="620" y="-105" type="line"/>
      <point x="574" y="-105" type="line"/>
      <point x="564" y="0" type="line"/>
      <point x="552" y="0" type="line"/>
    </contour>
  </outline>
</glyph>
<glyph name="uni044A" format="1">
  <advance width="525" height="962"/>
  <unicode hex="044A"/>
  <outline>
    <component base="uni044C" xOffset="68"/>
    <contour>
      <point x="0" y="500" type="line"/>
      <point x="137" y="500" type="line"/>
      <point x="137" y="449" type="line"/>
      <point x="108" y="449" type="line"/>
      <point x="0" y="451" type="line"/>
    </contour>
  </outline>
</glyph>
<glyph name="uni044D" format="2">
  <advance width="378" height="962"/>
  <unicode hex="044D"/>
  <outline>
    <contour>
      <point x="41" y="433" type="curve"/>
      <point x="27" y="478" type="line"/>
      <point x="69" y="497"/>
      <point x="116" y="510"/>
      <point x="161" y="510" type="curve" smooth="yes"/>
      <point x="285" y="510"/>
      <point x="347" y="433"/>
      <point x="347" y="319" type="curve" smooth="yes"/>
      <point x="347" y="174" type="line" smooth="yes"/>
      <point x="347" y="47"/>
      <point x="272" y="-9"/>
      <point x="157" y="-11" type="curve" smooth="yes"/>
      <point x="113" y="-12"/>
      <point x="66" y="-6"/>
      <point x="25" y="5" type="curve"/>
      <point x="36" y="55" type="line"/>
      <point x="34" y="56"/>
      <point x="96" y="41"/>
      <point x="155" y="41" type="curve" smooth="yes"/>
      <point x="251" y="41"/>
      <point x="293" y="84"/>
      <point x="292" y="186" type="curve" smooth="yes"/>
      <point x="291.672" y="227" type="line"/>
      <point x="90" y="227" type="line"/>
      <point x="70" y="281" type="line"/>
      <point x="291.24" y="281" type="line"/>
      <point x="291" y="311" type="line" smooth="yes"/>
      <point x="290" y="397"/>
      <point x="253" y="459"/>
      <point x="159" y="459" type="curve" smooth="yes"/>
      <point x="120" y="459"/>
      <point x="76" y="449"/>
    </contour>
  </outline>
</glyph>
<glyph name="uni0454" format="2">
  <advance width="381" height="962"/>
  <unicode hex="0454"/>
  <outline>
    <contour>
      <point x="285" y="247" type="line"/>
      <point x="84.488" y="247" type="line"/>
      <point x="84" y="186" type="line" smooth="yes"/>
      <point x="83" y="84"/>
      <point x="125" y="41"/>
      <point x="221" y="41" type="curve" smooth="yes"/>
      <point x="280" y="41"/>
      <point x="342" y="56"/>
      <point x="340" y="55" type="curve"/>
      <point x="351" y="5" type="line"/>
      <point x="310" y="-6"/>
      <point x="263" y="-12"/>
      <point x="219" y="-11" type="curve" smooth="yes"/>
      <point x="104" y="-9"/>
      <point x="29" y="47"/>
      <point x="29" y="174" type="curve" smooth="yes"/>
      <point x="29" y="319" type="line" smooth="yes"/>
      <point x="29" y="433"/>
      <point x="91" y="510"/>
      <point x="215" y="510" type="curve" smooth="yes"/>
      <point x="260" y="510"/>
      <point x="307" y="497"/>
      <point x="349" y="478" type="curve"/>
      <point x="335" y="433" type="line"/>
      <point x="300" y="449"/>
      <point x="256" y="459"/>
      <point x="217" y="459" type="curve" smooth="yes"/>
      <point x="123" y="459"/>
      <point x="86" y="397"/>
      <point x="85" y="311" type="curve"/>
      <point x="84.92" y="301" type="line"/>
      <point x="305" y="301" type="line"/>
    </contour>
  </outline>
</glyph>
<glyph name="uni0459" format="2">
  <advance width="795" height="962"/>
  <unicode hex="0459"/>
  <outline>
    <contour>
      <point x="610" y="303" type="line" smooth="yes"/>
      <point x="690" y="303"/>
      <point x="762" y="249"/>
      <point x="762" y="152" type="curve" smooth="yes"/>
      <point x="762" y="69"/>
      <point x="705" y="-8"/>
      <point x="579" y="-8" type="curve" smooth="yes"/>
      <point x="494" y="-8"/>
      <point x="384" y="3"/>
      <point x="384" y="3" type="curve"/>
      <point x="384" y="447" type="line"/>
      <point x="318" y="447" type="line" smooth="yes"/>
      <point x="265" y="447"/>
      <point x="235" y="421"/>
      <point x="222" y="378" type="curve" smooth="yes"/>
      <point x="141" y="112" type="line" smooth="yes"/>
      <point x="119" y="40"/>
      <point x="98" y="4"/>
      <point x="38" y="-11" type="curve"/>
      <point x="1" y="20" type="line"/>
      <point x="59" y="38"/>
      <point x="82" y="102"/>
      <point x="89" y="124" type="curve" smooth="yes"/>
      <point x="158" y="357" type="line" smooth="yes"/>
      <point x="171" y="400"/>
      <point x="192" y="500"/>
      <point x="312" y="500" type="curve" smooth="yes"/>
      <point x="441" y="500" type="line"/>
      <point x="441" y="303" type="line"/>
    </contour>
    <contour>
      <point x="569" y="45" type="curve" smooth="yes"/>
      <point x="652" y="45"/>
      <point x="706" y="90"/>
      <point x="706" y="149" type="curve" smooth="yes"/>
      <point x="706" y="227"/>
      <point x="650" y="248"/>
      <point x="615" y="248" type="curve" smooth="yes"/>
      <point x="441" y="248" type="line"/>
      <point x="441" y="49" type="line"/>
      <point x="441" y="49"/>
      <point x="504" y="45"/>
    </contour>
  </outline>
</glyph>
<glyph name="uni0462" format="1">
  <advance width="479" height="962"/>
  <unicode hex="0462"/>
  <outline>
    <component base="uni042C" xOffset="24"/>
    <contour>
      <point x="1" y="617" type="line"/>
      <point x="237" y="617" type="line"/>
      <point x="237" y="564" type="line"/>
      <point x="1" y="564" type="line"/>
    </contour>
  </outline>
</glyph>
<glyph name="uni046A" format="2">
  <advance width="602"/>
  <unicode hex="046A"/>
  <outline>
    <contour>
      <point x="372" y="376" type="line" smooth="yes"/>
      <point x="498" y="376"/>
      <point x="563" y="305"/>
      <point x="563" y="184" type="curve" smooth="yes"/>
      <point x="563" y="0" type="line"/>
      <point x="507" y="0" type="line"/>
      <point x="507" y="194" type="line" smooth="yes"/>
      <point x="507" y="282"/>
      <point x="452" y="325"/>
      <point x="372" y="325" type="curve" smooth="yes"/>
      <point x="326" y="325" type="line"/>
      <point x="326" y="0" type="line"/>
      <point x="269" y="0" type="line"/>
      <point x="269" y="325" type="line"/>
      <point x="227" y="325" type="line" smooth="yes"/>
      <point x="147" y="325"/>
      <point x="92" y="282"/>
      <point x="92" y="194" type="curve" smooth="yes"/>
      <point x="92" y="0" type="line"/>
      <point x="36" y="0" type="line"/>
      <point x="36" y="184" type="line" smooth="yes"/>
      <point x="36" y="305"/>
      <point x="101" y="376"/>
      <point x="227" y="376" type="curve" smooth="yes"/>
      <point x="252" y="376" type="line"/>
      <point x="62" y="700" type="line"/>
      <point x="535" y="700" type="line"/>
      <point x="345" y="376" type="line"/>
    </contour>
    <contour>
      <point x="297" y="405" type="line"/>
      <point x="440" y="643" type="line"/>
      <point x="161" y="643" type="line"/>
    </contour>
  </outline>
  <guideline angle="0" x="0" y="748"/>
</glyph>
<glyph name="uni0490" format="1">
  <advance width="383" height="962"/>
  <unicode hex="0490"/>
  <outline>
    <component base="Gamma"/>
    <contour>
      <point x="326" y="791" type="line"/>
      <point x="375" y="791" type="line"/>
      <point x="375" y="670" type="line"/>
      <point x="324" y="670" type="line"/>
      <point x="324" y="699" type="line"/>
    </contour>
  </outline>
</glyph>
<glyph name="uni0495" format="2">
  <advance width="415" height="962"/>
  <unicode hex="0495"/>
  <outline>
    <component base="uni0433"/>
    <contour>
      <point x="217" y="304" type="curve" smooth="yes"/>
      <point x="316" y="304"/>
      <point x="382" y="250"/>
      <point x="382" y="144" type="curve" smooth="yes"/>
      <point x="382" y="-62" type="line" smooth="yes"/>
      <point x="382" y="-144"/>
      <point x="351" y="-184"/>
      <point x="275" y="-209" type="curve"/>
      <point x="259" y="-166" type="line"/>
      <point x="306" y="-149"/>
      <point x="326" y="-109"/>
      <point x="326" y="-61" type="curve" smooth="yes"/>
      <point x="326" y="141" type="line" smooth="yes"/>
      <point x="326" y="232"/>
      <point x="264" y="254"/>
      <point x="207" y="254" type="curve" smooth="yes"/>
      <point x="166" y="254"/>
      <point x="127" y="242"/>
      <point x="88" y="219" type="curve"/>
      <point x="88" y="261" type="line"/>
      <point x="124" y="287"/>
      <point x="172" y="304"/>
    </contour>
  </outline>
</glyph>
<glyph name="uni0496" format="2">
  <advance width="680"/>
  <unicode hex="0496"/>
  <outline>
    <component base="uni0416"/>
    <contour>
      <point x="591" y="57" type="line"/>
      <point x="659" y="57" type="line"/>
      <point x="659" y="-105" type="line"/>
      <point x="613" y="-105" type="line"/>
      <point x="603" y="0" type="line"/>
      <point x="591" y="0" type="line"/>
    </contour>
  </outline>
</glyph>
<glyph name="uni049C" format="1">
  <advance width="535" height="962"/>
  <unicode hex="049C"/>
  <outline>
    <contour>
      <point x="512" y="0" type="line"/>
      <point x="445" y="0" type="line"/>
      <point x="211" y="357" type="line"/>
      <point x="181" y="357" type="line"/>
      <point x="181" y="285" type="line"/>
      <point x="123" y="285" type="line"/>
      <point x="123" y="357" type="line"/>
      <point x="97" y="357" type="line"/>
      <point x="97" y="0" type="line"/>
      <point x="40" y="0" type="line"/>
      <point x="40" y="700" type="line"/>
      <point x="97" y="700" type="line"/>
      <point x="97" y="412" type="line"/>
      <point x="123" y="412" type="line"/>
      <point x="123" y="484" type="line"/>
      <point x="181" y="484" type="line"/>
      <point x="181" y="412" type="line"/>
      <point x="202" y="412" type="line"/>
      <point x="395" y="700" type="line"/>
      <point x="460" y="700" type="line"/>
      <point x="251" y="394" type="line"/>
    </contour>
  </outline>
</glyph>
<glyph name="uni04A0" format="2">
  <advance width="527"/>
  <unicode hex="04A0"/>
  <outline>
    <component base="K" xOffset="67"/>
    <contour>
      <point x="1" y="700" type="line"/>
      <point x="137" y="700" type="line"/>
      <point x="137" y="648" type="line"/>
      <point x="116" y="648" type="line"/>
      <point x="1" y="651" type="line"/>
    </contour>
  </outline>
</glyph>
<glyph name="uni04A5" format="1">
  <advance width="548" height="962"/>
  <unicode hex="04A5"/>
  <outline>
    <component base="uni043D"/>
    <contour>
      <point x="374" y="500" type="line"/>
      <point x="513" y="500" type="line"/>
      <point x="513" y="451" type="line"/>
      <point x="406" y="448" type="line"/>
      <point x="374" y="448" type="line"/>
    </contour>
  </outline>
</glyph>
<glyph name="uni04AF" format="1">
  <advance width="424" height="962"/>
  <unicode hex="04AF"/>
  <outline>
    <contour>
      <point x="407" y="500" type="line"/>
      <point x="242" y="-2" type="line"/>
      <point x="242" y="-214" type="line"/>
      <point x="185" y="-190" type="line"/>
      <point x="185" y="0" type="line"/>
      <point x="22" y="500" type="line"/>
      <point x="80" y="500" type="line"/>
      <point x="215" y="86" type="line"/>
      <point x="348" y="500" type="line"/>
    </contour>
  </outline>
</glyph>
<glyph name="uni04B1" format="2">
  <advance width="424"/>
  <unicode hex="04B1"/>
  <outline>
    <component base="uni04AF" xOffset="-3"/>
    <contour>
      <point x="105" y="58" type="line"/>
      <point x="319" y="58" type="line"/>
      <point x="319" y="0" type="line"/>
      <point x="105" y="0" type="line"/>
    </contour>
  </outline>
</glyph>
<glyph name="uni04F6" format="1">
  <advance width="383" height="962"/>
  <unicode hex="04F6"/>
  <outline>
    <component base="Gamma"/>
    <contour>
      <point x="71" y="57" type="line"/>
      <point x="154" y="57" type="line"/>
      <point x="154" y="-105" type="line"/>
      <point x="108" y="-105" type="line"/>
      <point x="98" y="0" type="line"/>
      <point x="71" y="0" type="line"/>
    </contour>
  </outline>
</glyph>
<glyph name="uni04F7" format="2">
  <advance width="317"/>
  <unicode hex="04F7"/>
  <outline>
    <component base="uni0433"/>
    <contour>
      <point x="64" y="57" type="line"/>
      <point x="147" y="57" type="line"/>
      <point x="147" y="-105" type="line"/>
      <point x="101" y="-105" type="line"/>
      <point x="91" y="0" type="line"/>
      <point x="64" y="0" type="line"/>
    </contour>
  </outline>
</glyph>
<glyph name="quotesinglbase" format="1">
  <advance width="140" height="962"/>
  <unicode hex="201A"/>
  <outline>
    <contour>
      <point x="34" y="-65" type="line"/>
      <point x="54" y="-39"/>
      <point x="63" y="-12"/>
      <point x="64" y="10" type="curve"/>
      <point x="50" y="13"/>
      <point x="37" y="26"/>
      <point x="37" y="43" type="curve" smooth="yes"/>
      <point x="37" y="62"/>
      <point x="53" y="76"/>
      <point x="70" y="76" type="curve" smooth="yes"/>
      <point x="89" y="76"/>
      <point x="103" y="63"/>
      <point x="105" y="43" type="curve"/>
      <point x="105" y="-20"/>
      <point x="71" y="-60"/>
      <point x="51" y="-77" type="curve"/>
    </contour>
  </outline>
</glyph>
<glyph name="perthousand" format="2">
  <advance width="1058" height="962"/>
  <unicode hex="2030"/>
  <outline>
    <contour>
      <point x="49" y="0" type="line"/>
      <point x="588" y="700" type="line"/>
      <point x="652" y="700" type="line"/>
      <point x="118" y="0" type="line"/>
    </contour>
    <contour>
      <point x="176" y="714" type="curve" smooth="yes"/>
      <point x="254" y="714"/>
      <point x="321" y="650"/>
      <point x="321" y="568" type="curve" smooth="yes"/>
      <point x="321" y="488"/>
      <point x="254" y="422"/>
      <point x="176" y="422" type="curve" smooth="yes"/>
      <point x="95" y="422"/>
      <point x="29" y="488"/>
      <point x="29" y="568" type="curve" smooth="yes"/>
      <point x="29" y="650"/>
      <point x="95" y="714"/>
    </contour>
    <contour>
      <point x="176" y="663" type="curve" smooth="yes"/>
      <point x="123" y="663"/>
      <point x="80" y="619"/>
      <point x="80" y="568" type="curve" smooth="yes"/>
      <point x="80" y="518"/>
      <point x="123" y="474"/>
      <point x="176" y="474" type="curve" smooth="yes"/>
      <point x="227" y="474"/>
      <point x="269" y="518"/>
      <point x="269" y="568" type="curve" smooth="yes"/>
      <point x="269" y="619"/>
      <point x="227" y="663"/>
    </contour>
    <contour>
      <point x="536" y="277" type="curve" smooth="yes"/>
      <point x="617" y="277"/>
      <point x="681" y="212"/>
      <point x="681" y="132" type="curve" smooth="yes"/>
      <point x="681" y="51"/>
      <point x="617" y="-14"/>
      <point x="536" y="-14" type="curve" smooth="yes"/>
      <point x="456" y="-14"/>
      <point x="390" y="51"/>
      <point x="390" y="132" type="curve" smooth="yes"/>
      <point x="390" y="212"/>
      <point x="456" y="277"/>
    </contour>
    <contour>
      <point x="536" y="227" type="curve" smooth="yes"/>
      <point x="486" y="227"/>
      <point x="441" y="186"/>
      <point x="441" y="132" type="curve" smooth="yes"/>
      <point x="441" y="79"/>
      <point x="486" y="37"/>
      <point x="536" y="37" type="curve" smooth="yes"/>
      <point x="587" y="37"/>
      <point x="631" y="79"/>
      <point x="631" y="132" type="curve" smooth="yes"/>
      <point x="631" y="186"/>
      <point x="587" y="227"/>
    </contour>
    <contour>
      <point x="883" y="277" type="curve" smooth="yes"/>
      <point x="963" y="277"/>
      <point x="1028" y="212"/>
      <point x="1028" y="132" type="curve" smooth="yes"/>
      <point x="1028" y="51"/>
      <point x="963" y="-14"/>
      <point x="883" y="-14" type="curve" smooth="yes"/>
      <point x="802" y="-14"/>
      <point x="737" y="51"/>
      <point x="737" y="132" type="curve" smooth="yes"/>
      <point x="737" y="212"/>
      <point x="802" y="277"/>
    </contour>
    <contour>
      <point x="883" y="227" type="curve" smooth="yes"/>
      <point x="830" y="227"/>
      <point x="787" y="186"/>
      <point x="787" y="132" type="curve" smooth="yes"/>
      <point x="787" y="79"/>
      <point x="830" y="37"/>
      <point x="883" y="37" type="curve" smooth="yes"/>
      <point x="934" y="37"/>
      <point x="976" y="79"/>
      <point x="976" y="132" type="curve" smooth="yes"/>
      <point x="976" y="186"/>
      <point x="934" y="227"/>
    </contour>
  </outline>
</glyph>
<glyph name="guilsinglleft" format="2">
  <advance width="284" height="962"/>
  <unicode hex="2039"/>
  <outline>
    <contour>
      <point x="27" y="267" type="line"/>
      <point x="214" y="455" type="line"/>
      <point x="251" y="417" type="line"/>
      <point x="101" y="267" type="line"/>
      <point x="249" y="114" type="line"/>
      <point x="214" y="79" type="line"/>
    </contour>
  </outline>
</glyph>
<glyph name="uni20B8" format="1">
  <advance width="409" height="962"/>
  <unicode hex="20B8"/>
  <outline>
    <contour>
      <point x="229" y="556" type="line"/>
      <point x="229" y="0" type="line"/>
      <point x="174" y="0" type="line"/>
      <point x="174" y="556" type="line"/>
      <point x="3" y="556" type="line"/>
      <point x="3" y="606" type="line"/>
      <point x="405" y="606" type="line"/>
      <point x="405" y="556" type="line"/>
    </contour>
    <contour>
      <point x="3" y="650" type="line"/>
      <point x="3" y="700" type="line"/>
      <point x="406" y="700" type="line"/>
      <point x="406" y="650" type="line"/>
    </contour>
  </outline>
</glyph>
<glyph name="Y_upper_alt" format="2">
  <advance width="487"/>
  <unicode hex="9997"/>
  <outline>
    <contour>
      <point x="270" y="342" type="line"/>
      <point x="270" y="0" type="line"/>
      <point x="214" y="0" type="line"/>
      <point x="214" y="340" type="line"/>
      <point x="6" y="700" type="line"/>
      <point x="69" y="700" type="line"/>
      <point x="241" y="406" type="line"/>
      <point x="414" y="700" type="line"/>
      <point x="479" y="700" type="line"/>
    </contour>
  </outline>
</glyph>
<glyph name="ff" format="2">
  <advance width="496"/>
  <unicode hex="FB00"/>
  <outline>
    <contour>
      <point x="455" y="634" type="line"/>
      <point x="422" y="650"/>
      <point x="394" y="651"/>
      <point x="367" y="633" type="curve" smooth="yes"/>
      <point x="342" y="615"/>
      <point x="329" y="588"/>
      <point x="329" y="550" type="curve" smooth="yes"/>
      <point x="329" y="500" type="line"/>
      <point x="443" y="500" type="line"/>
      <point x="419" y="447" type="line"/>
      <point x="329" y="447" type="line"/>
      <point x="329" y="0" type="line"/>
      <point x="272" y="0" type="line"/>
      <point x="272" y="562" type="line" smooth="yes"/>
      <point x="272" y="583"/>
      <point x="278" y="601"/>
      <point x="284" y="620" type="curve"/>
      <point x="256" y="639"/>
      <point x="227" y="651"/>
      <point x="202" y="653" type="curve" smooth="yes"/>
      <point x="146" y="658"/>
      <point x="96" y="634"/>
      <point x="96" y="550" type="curve" smooth="yes"/>
      <point x="96" y="500" type="line"/>
      <point x="210" y="500" type="line"/>
      <point x="187" y="447" type="line"/>
      <point x="96" y="447" type="line"/>
      <point x="96" y="0" type="line"/>
      <point x="39" y="0" type="line"/>
      <point x="39" y="562" type="line" smooth="yes"/>
      <point x="39" y="646"/>
      <point x="101" y="706"/>
      <point x="181" y="706" type="curve" smooth="yes"/>
      <point x="230" y="706"/>
      <point x="274" y="692"/>
      <point x="314" y="664" type="curve"/>
      <point x="341" y="688"/>
      <point x="375" y="700"/>
      <point x="408" y="700" type="curve" smooth="yes"/>
      <point x="431" y="700"/>
      <point x="459" y="694"/>
      <point x="475" y="683" type="curve"/>
    </contour>
  </outline>
</glyph>
<glyph name="fi" format="2">
  <advance width="365"/>
  <unicode hex="FB01"/>
  <outline>
    <contour>
      <point x="326" y="614" type="line"/>
      <point x="292" y="637"/>
      <point x="241" y="654"/>
      <point x="183" y="654" type="curve" smooth="yes"/>
      <point x="118" y="654"/>
      <point x="96" y="619"/>
      <point x="96" y="564" type="curve" smooth="yes"/>
      <point x="96" y="500" type="line"/>
      <point x="210" y="500" type="line"/>
      <point x="187" y="447" type="line"/>
      <point x="96" y="447" type="line"/>
      <point x="96" y="0" type="line"/>
      <point x="39" y="0" type="line"/>
      <point x="39" y="562" type="line" smooth="yes"/>
      <point x="39" y="652"/>
      <point x="93" y="711"/>
      <point x="185" y="709" type="curve" smooth="yes"/>
      <point x="242" y="708"/>
      <point x="293" y="691"/>
      <point x="326" y="668" type="curve"/>
    </contour>
    <contour>
      <point x="326" y="0" type="line"/>
      <point x="269" y="0" type="line"/>
      <point x="269" y="500" type="line"/>
      <point x="326" y="500" type="line"/>
    </contour>
  </outline>
</glyph>
<glyph name="cedillacomb" format="1">
  <advance width="267" height="962"/>
  <outline>
    <contour>
      <point x="166" y="10" type="line"/>
      <point x="140" y="-34" type="line"/>
      <point x="148" y="-33"/>
      <point x="157" y="-33"/>
      <point x="166" y="-32" type="curve" smooth="yes"/>
      <point x="232" y="-28"/>
      <point x="271" y="-70"/>
      <point x="271" y="-126" type="curve" smooth="yes"/>
      <point x="271" y="-192"/>
      <point x="215" y="-224"/>
      <point x="156" y="-224" type="curve" smooth="yes"/>
      <point x="110" y="-224"/>
      <point x="56" y="-212"/>
      <point x="54" y="-212" type="curve"/>
      <point x="66" y="-164" type="line"/>
      <point x="95" y="-170"/>
      <point x="123" y="-175"/>
      <point x="150" y="-175" type="curve" smooth="yes"/>
      <point x="189" y="-175"/>
      <point x="221" y="-165"/>
      <point x="221" y="-124" type="curve" smooth="yes"/>
      <point x="221" y="-89"/>
      <point x="197" y="-82"/>
      <point x="163" y="-82" type="curve" smooth="yes"/>
      <point x="141" y="-82"/>
      <point x="115" y="-86"/>
      <point x="88" y="-89" type="curve"/>
      <point x="75" y="-59" type="line"/>
      <point x="116" y="10" type="line"/>
    </contour>
  </outline>
</glyph>
<glyph name="dieresistonoscomb" format="1">
  <advance width="267" height="962"/>
  <outline>
    <contour>
      <point x="87" y="692" type="curve" smooth="yes"/>
      <point x="87" y="674"/>
      <point x="73" y="659"/>
      <point x="54" y="659" type="curve" smooth="yes"/>
      <point x="36" y="659"/>
      <point x="20" y="674"/>
      <point x="20" y="692" type="curve" smooth="yes"/>
      <point x="20" y="711"/>
      <point x="36" y="725"/>
      <point x="54" y="725" type="curve" smooth="yes"/>
      <point x="73" y="725"/>
      <point x="87" y="711"/>
    </contour>
    <contour>
      <point x="246" y="692" type="curve" smooth="yes"/>
      <point x="246" y="674"/>
      <point x="230" y="659"/>
      <point x="212" y="659" type="curve" smooth="yes"/>
      <point x="194" y="659"/>
      <point x="179" y="674"/>
      <point x="179" y="692" type="curve" smooth="yes"/>
      <point x="179" y="711"/>
      <point x="194" y="725"/>
      <point x="212" y="725" type="curve" smooth="yes"/>
      <point x="230" y="725"/>
      <point x="246" y="711"/>
    </contour>
    <contour>
      <point x="205" y="816" type="curve" smooth="yes"/>
      <point x="152" y="736" type="line"/>
      <point x="116" y="736" type="line"/>
      <point x="154" y="843" type="line" smooth="yes"/>
      <point x="160" y="861"/>
      <point x="180" y="873"/>
      <point x="198" y="863" type="curve" smooth="yes"/>
      <point x="216" y="853"/>
      <point x="215" y="831"/>
    </contour>
  </outline>
</glyph>
<glyph name="gamma_kappa" format="1">
  <advance width="884" height="962"/>
  <outline>
    <component base="kappa" xOffset="449.5"/>
    <contour>
      <point x="498" y="469" type="line"/>
      <point x="434" y="476"/>
      <point x="416" y="443"/>
      <point x="401" y="393" type="curve" smooth="yes"/>
      <point x="265" y="-58" type="line" smooth="yes"/>
      <point x="251" y="-102"/>
      <point x="236" y="-196"/>
      <point x="116" y="-199" type="curve"/>
      <point x="106" y="-156" type="line"/>
      <point x="160" y="-154"/>
      <point x="189" y="-123"/>
      <point x="202" y="-79" type="curve" smooth="yes"/>
      <point x="224" y="-6" type="line"/>
      <point x="167" y="17"/>
      <point x="147" y="69"/>
      <point x="129" y="129" type="curve" smooth="yes"/>
      <point x="20" y="500" type="line"/>
      <point x="77" y="500" type="line"/>
      <point x="184" y="140" type="line" smooth="yes"/>
      <point x="203" y="75"/>
      <point x="217" y="55"/>
      <point x="240" y="43" type="curve"/>
      <point x="351" y="405" type="line" smooth="yes"/>
      <point x="373" y="477"/>
      <point x="418" y="518"/>
      <point x="488" y="512" type="curve"/>
    </contour>
  </outline>
</glyph>
